<svg width="150" height="150" viewBox="0 0 150 150" fill="none" xmlns="http://www.w3.org/2000/svg">
<rect width="150" height="150" rx="10" fill="#3299D0"/>
<path d="M45.5868 74.898C50.9828 74.898 55.3572 70.5236 55.3572 65.1276C55.3572 59.7315 50.9828 55.3572 45.5868 55.3572C40.1907 55.3572 35.8163 59.7315 35.8163 65.1276C35.8163 70.5236 40.1907 74.898 45.5868 74.898Z" fill="white"/>
<path d="M63.1735 59.2653C68.5695 59.2653 72.9439 54.8909 72.9439 49.4949C72.9439 44.0988 68.5695 39.7245 63.1735 39.7245C57.7774 39.7245 53.4031 44.0988 53.4031 49.4949C53.4031 54.8909 57.7774 59.2653 63.1735 59.2653Z" fill="white"/>
<path d="M86.6225 59.2653C92.0185 59.2653 96.3929 54.8909 96.3929 49.4949C96.3929 44.0988 92.0185 39.7245 86.6225 39.7245C81.2264 39.7245 76.8521 44.0988 76.8521 49.4949C76.8521 54.8909 81.2264 59.2653 86.6225 59.2653Z" fill="white"/>
<path d="M104.209 74.898C109.605 74.898 113.98 70.5236 113.98 65.1276C113.98 59.7315 109.605 55.3572 104.209 55.3572C98.8131 55.3572 94.4388 59.7315 94.4388 65.1276C94.4388 70.5236 98.8131 74.898 104.209 74.898Z" fill="white"/>
<path d="M95.7676 86.0754C92.3675 82.089 89.5146 78.6889 86.0754 74.7026C84.2776 72.5922 81.9718 70.4818 79.2361 69.5438C78.8062 69.3875 78.3763 69.2703 77.9464 69.1921C76.9694 69.0358 75.9142 69.0358 74.898 69.0358C73.8819 69.0358 72.8267 69.0358 71.8106 69.2312C71.3807 69.3093 70.9508 69.4266 70.5209 69.5829C67.7852 70.5209 65.5184 72.6313 63.6816 74.7417C60.2815 78.728 57.4285 82.1281 53.9894 86.1144C48.8697 91.2341 42.5775 96.901 43.75 104.835C44.8833 108.821 47.7363 112.768 52.856 113.901C55.709 114.488 64.815 112.182 74.5072 112.182H75.2107C84.9029 112.182 94.009 114.449 96.8619 113.901C101.982 112.768 104.835 108.782 105.968 104.835C107.179 96.8619 100.887 91.1951 95.7676 86.0754Z" fill="white"/>
</svg>
