<svg width="150" height="150" viewBox="0 0 150 150" fill="none" xmlns="http://www.w3.org/2000/svg">
<rect width="150" height="150" rx="10" fill="#232323"/>
<path d="M81.8651 87.2942L90.1555 79.0038L113.59 102.438L105.299 110.728L81.8651 87.2942Z" fill="white"/>
<path d="M96.3928 67.0819C103.936 67.0819 110.071 60.9461 110.071 53.4033C110.071 51.1366 109.446 49.0262 108.469 47.1503L97.917 57.7023L92.0938 51.8791L102.646 41.3271C100.77 40.35 98.6595 39.7247 96.3928 39.7247C88.85 39.7247 82.7142 45.8606 82.7142 53.4033C82.7142 55.0057 83.0269 56.5298 83.5349 57.9368L76.3048 65.1669L69.3483 58.2104L72.1231 55.4356L66.6126 49.925L74.8979 41.6397C70.3253 37.0672 62.8998 37.0672 58.3273 41.6397L44.4924 55.4746L50.0029 60.9851H38.9819L36.2071 63.7599L50.042 77.5948L52.8168 74.82V63.7599L58.3273 69.2705L61.1021 66.4957L68.0586 73.4522L39.0991 102.412L47.3844 110.697L91.8593 66.2612C93.2663 66.7692 94.7904 67.0819 96.3928 67.0819Z" fill="#FEFEFE"/>
</svg>
