<svg width="150" height="150" viewBox="0 0 150 150" fill="none" xmlns="http://www.w3.org/2000/svg">
<rect width="150" height="150" rx="10" fill="#8A3C04"/>
<path d="M89.0992 39.8922C89.4068 39.7589 89.755 39.7589 90.0627 39.8922L106.702 47.1051L89.5812 54.5267L72.4605 47.105L89.0992 39.8922Z" fill="white"/>
<path d="M71.2379 49.2664V68.2417C71.2379 68.7364 71.5294 69.1837 71.9791 69.3787L88.3584 76.4789V56.688L71.2379 49.2664Z" fill="white"/>
<path d="M90.8038 56.688L107.924 49.2664V68.2415C107.924 68.7363 107.633 69.1836 107.183 69.3785L90.8038 76.4787V56.688Z" fill="white"/>
<path d="M37.381 70.21H51.451V107.73H37.381V70.21Z" fill="white"/>
<path d="M98.3507 88.97H79.5907L69.8355 85.218L71.5239 80.8563L80.4349 84.28H86.1567C87.7044 84.28 88.9238 83.0606 88.9238 81.5129C88.9238 80.3404 88.2203 79.3086 87.1416 78.9334L64.0668 70.21H56.1407V101.07L80.9039 107.73L107.731 98.35C107.731 93.191 103.51 88.97 98.3507 88.97Z" fill="white"/>
</svg>
