<svg width="150" height="150" viewBox="0 0 150 150" fill="none" xmlns="http://www.w3.org/2000/svg">
<rect width="150" height="150" rx="10" fill="#7FB72F"/>
<path d="M74.898 39.7245C55.4744 39.7245 39.7245 55.4744 39.7245 74.898C39.7245 94.3215 55.4744 110.071 74.898 110.071C78.1417 110.071 80.7602 107.453 80.7602 104.209C80.7602 102.685 80.174 101.317 79.236 100.262C78.3371 99.2458 77.7509 97.878 77.7509 96.3929C77.7509 93.1491 80.3694 90.5306 83.6132 90.5306H90.5306C101.317 90.5306 110.071 81.7763 110.071 70.9898C110.071 53.7157 94.3215 39.7245 74.898 39.7245ZM53.4031 74.898C50.1593 74.898 47.5408 72.2795 47.5408 69.0357C47.5408 65.7919 50.1593 63.1735 53.4031 63.1735C56.6468 63.1735 59.2653 65.7919 59.2653 69.0357C59.2653 72.2795 56.6468 74.898 53.4031 74.898ZM65.1276 59.2653C61.8838 59.2653 59.2653 56.6468 59.2653 53.4031C59.2653 50.1593 61.8838 47.5408 65.1276 47.5408C68.3713 47.5408 70.9898 50.1593 70.9898 53.4031C70.9898 56.6468 68.3713 59.2653 65.1276 59.2653ZM84.6684 59.2653C81.4246 59.2653 78.8061 56.6468 78.8061 53.4031C78.8061 50.1593 81.4246 47.5408 84.6684 47.5408C87.9121 47.5408 90.5306 50.1593 90.5306 53.4031C90.5306 56.6468 87.9121 59.2653 84.6684 59.2653ZM96.3929 74.898C93.1491 74.898 90.5306 72.2795 90.5306 69.0357C90.5306 65.7919 93.1491 63.1735 96.3929 63.1735C99.6366 63.1735 102.255 65.7919 102.255 69.0357C102.255 72.2795 99.6366 74.898 96.3929 74.898Z" fill="white"/>
</svg>
