<svg width="150" height="150" viewBox="0 0 150 150" fill="none" xmlns="http://www.w3.org/2000/svg">
<rect width="150" height="150" rx="10" fill="#4D3579"/>
<path d="M74.898 51.4489C79.2148 51.4489 82.7143 47.9495 82.7143 43.6326C82.7143 39.3158 79.2148 35.8163 74.898 35.8163C70.5812 35.8163 67.0817 39.3158 67.0817 43.6326C67.0817 47.9495 70.5812 51.4489 74.898 51.4489Z" fill="white"/>
<path d="M102.255 78.8063V70.99C96.2366 71.0681 90.1789 68.0588 86.3489 63.838L81.3074 58.2493C80.643 57.5068 79.8223 56.9206 78.9234 56.4907C78.8843 56.4907 78.8843 56.4516 78.8452 56.4516H78.8061C77.4383 55.6699 75.875 55.2791 74.1554 55.4355C70.0519 55.7872 67.0817 59.4218 67.0817 63.5254V86.6226C67.0817 90.9216 70.599 94.4389 74.898 94.4389H94.4388V113.98H102.255V92.4848C102.255 88.1859 98.7378 84.6685 94.4388 84.6685H82.7143V71.1854C87.7558 75.3671 95.4158 78.7672 102.255 78.8063ZM78.1418 98.3471C76.5394 102.881 72.2013 106.163 67.0817 106.163C60.5941 106.163 55.3572 100.926 55.3572 94.4389C55.3572 89.3192 58.64 85.0203 63.1735 83.3788V75.2889C54.2629 77.0867 47.5408 84.9812 47.5408 94.4389C47.5408 105.225 56.2951 113.98 67.0817 113.98C76.5394 113.98 84.4339 107.258 86.2317 98.3471H78.1418Z" fill="white"/>
</svg>
