<svg width="150" height="150" viewBox="0 0 150 150" fill="none" xmlns="http://www.w3.org/2000/svg">
<rect width="150" height="150" rx="10" fill="#827C5F"/>
<path d="M88.5765 49.495C92.8755 49.495 96.3929 45.9776 96.3929 41.6786C96.3929 37.3797 92.8755 33.8623 88.5765 33.8623C84.2776 33.8623 80.7602 37.3797 80.7602 41.6786C80.7602 45.9776 84.2776 49.495 88.5765 49.495ZM47.5408 74.898C36.598 74.898 28 83.496 28 94.4388C28 105.382 36.598 113.98 47.5408 113.98C58.4837 113.98 67.0816 105.382 67.0816 94.4388C67.0816 83.496 58.4837 74.898 47.5408 74.898ZM47.5408 108.117C40.1153 108.117 33.8622 101.864 33.8622 94.4388C33.8622 87.0133 40.1153 80.7603 47.5408 80.7603C54.9663 80.7603 61.2194 87.0133 61.2194 94.4388C61.2194 101.864 54.9663 108.117 47.5408 108.117ZM70.2082 69.0358L79.5878 59.6562L82.7143 62.7827C87.7949 67.8633 94.4388 70.9899 102.646 70.9899V63.1735C96.7837 63.1735 92.0939 60.8286 88.5765 57.3113L81.151 49.8858C79.197 48.3225 77.2429 47.5409 74.898 47.5409C72.5531 47.5409 70.599 48.3225 69.4265 49.8858L58.4837 60.8286C56.9204 62.3919 56.1388 64.346 56.1388 66.3001C56.1388 68.645 56.9204 70.599 58.4837 71.7715L70.9898 82.7144V102.255H78.8061V78.0246L70.2082 69.0358ZM102.255 74.898C91.3123 74.898 82.7143 83.496 82.7143 94.4388C82.7143 105.382 91.3123 113.98 102.255 113.98C113.198 113.98 121.796 105.382 121.796 94.4388C121.796 83.496 113.198 74.898 102.255 74.898ZM102.255 108.117C94.8296 108.117 88.5765 101.864 88.5765 94.4388C88.5765 87.0133 94.8296 80.7603 102.255 80.7603C109.681 80.7603 115.934 87.0133 115.934 94.4388C115.934 101.864 109.681 108.117 102.255 108.117Z" fill="white"/>
</svg>
