<svg width="150" height="150" viewBox="0 0 150 150" fill="none" xmlns="http://www.w3.org/2000/svg">
<rect width="150" height="150" rx="10" fill="#E3282D"/>
<path d="M78.8062 35.8163V67.0816H110.071C110.071 49.8075 96.0802 35.8163 78.8062 35.8163ZM103.506 90.1007C107.609 84.8247 110.071 78.1808 110.071 70.9898H53.1686L49.4558 63.1734H35.8163V70.9898H44.4925C44.4925 70.9898 51.8789 86.896 52.7778 88.2638C48.4788 90.5697 45.5868 95.1031 45.5868 100.301C45.5868 107.844 51.7226 113.98 59.2653 113.98C66.1437 113.98 71.8496 108.899 72.7876 102.255H80.9166C81.8545 108.899 87.5604 113.98 94.4388 113.98C101.982 113.98 108.117 107.844 108.117 100.301C108.117 96.2365 106.32 92.6019 103.506 90.1007ZM59.2653 106.163C56.0216 106.163 53.4031 103.545 53.4031 100.301C53.4031 97.0572 56.0216 94.4387 59.2653 94.4387C62.5091 94.4387 65.1276 97.0572 65.1276 100.301C65.1276 103.545 62.5091 106.163 59.2653 106.163ZM94.4388 106.163C91.195 106.163 88.5766 103.545 88.5766 100.301C88.5766 97.0572 91.195 94.4387 94.4388 94.4387C97.6826 94.4387 100.301 97.0572 100.301 100.301C100.301 103.545 97.6826 106.163 94.4388 106.163Z" fill="white"/>
</svg>
