<svg width="150" height="150" viewBox="0 0 150 150" fill="none" xmlns="http://www.w3.org/2000/svg">
<rect width="150" height="150" rx="10" fill="#F9B729"/>
<path d="M101.443 93.0944C100.786 92.1096 99.8949 91.2185 98.91 90.5619C97.4093 89.5771 95.5803 88.9674 93.6575 88.9674C91.7346 88.9674 89.9056 89.5771 88.4049 90.5619C87.42 91.2185 86.529 92.1096 85.8724 93.0944C85.7317 93.282 85.6848 93.4696 85.591 93.6572H64.2055L70.5837 83.8555C71.9906 84.09 73.4444 84.2776 74.8983 84.2776C76.3521 84.2776 77.8059 84.09 79.2129 83.8555L82.8709 89.4833C83.9027 88.2639 85.0751 87.1853 86.4352 86.388L83.9027 82.4955C92.3912 78.9312 98.3473 70.5834 98.3473 60.8286H51.4493C51.4493 70.5834 57.4053 78.9312 65.8939 82.4955L50.5582 106.085L54.4977 108.665L61.1572 98.347H84.2779C84.2779 103.506 88.4987 107.727 93.6575 107.727C98.8162 107.727 103.037 103.506 103.037 98.347C103.037 96.4242 102.427 94.5952 101.443 93.0944ZM93.6575 103.037C91.0781 103.037 88.9677 100.926 88.9677 98.347C88.9677 95.7676 91.0781 93.6572 93.6575 93.6572C96.2369 93.6572 98.3473 95.7676 98.3473 98.347C98.3473 100.926 96.2369 103.037 93.6575 103.037Z" fill="#FDFDFD"/>
<path d="M68.5197 56.1387H70.9115C71.3336 52.9028 71.5681 51.5427 68.4259 47.8378C67.2535 46.3839 66.5031 45.6336 67.1128 42.0693H64.7679C64.1582 45.2115 64.8617 47.8378 67.2535 50.4172C67.91 51.0737 69.5046 52.2931 68.5197 56.1387Z" fill="white"/>
<path d="M75.5544 56.1387H77.9462C78.3683 52.9028 78.6028 51.5427 75.4606 47.8378C74.2881 46.3839 73.5378 45.6336 74.1474 42.0693H71.8025C71.1929 45.2115 71.8963 47.8378 74.2881 50.4172C74.9447 51.0737 76.5392 52.2931 75.5544 56.1387Z" fill="white"/>
<path d="M82.5891 56.1387H84.9808C85.4029 52.9028 85.6374 51.5427 82.4953 47.8378C81.3228 46.4308 80.5724 45.6336 81.1821 42.0693H78.8372C78.2275 45.2115 78.931 47.8378 81.3228 50.4172C81.9794 51.0737 83.5739 52.2931 82.5891 56.1387Z" fill="white"/>
</svg>
