<svg width="42" height="42" viewBox="0 0 42 42" fill="none" xmlns="http://www.w3.org/2000/svg">
<path d="M20.8352 15.6262H27.7802C28.7352 15.6262 29.5165 14.8449 29.5165 13.89C29.5165 12.9351 28.7352 12.1537 27.7802 12.1537H20.8352C19.8803 12.1537 19.099 12.9351 19.099 13.89C19.099 14.8449 19.8803 15.6262 20.8352 15.6262ZM20.8352 22.5712H27.7802C28.7352 22.5712 29.5165 21.7899 29.5165 20.835C29.5165 19.8801 28.7352 19.0987 27.7802 19.0987H20.8352C19.8803 19.0987 19.099 19.8801 19.099 20.835C19.099 21.7899 19.8803 22.5712 20.8352 22.5712ZM20.8352 29.5162H27.7802C28.7352 29.5162 29.5165 28.7349 29.5165 27.78C29.5165 26.8251 28.7352 26.0437 27.7802 26.0437H20.8352C19.8803 26.0437 19.099 26.8251 19.099 27.78C19.099 28.7349 19.8803 29.5162 20.8352 29.5162ZM12.154 12.1537H15.6265V15.6262H12.154V12.1537ZM12.154 19.0987H15.6265V22.5712H12.154V19.0987ZM12.154 26.0437H15.6265V29.5162H12.154V26.0437ZM34.7252 5.20874H6.94523C5.9903 5.20874 5.20898 5.99005 5.20898 6.94499V34.725C5.20898 35.6799 5.9903 36.4612 6.94523 36.4612H34.7252C35.6802 36.4612 36.4615 35.6799 36.4615 34.725V6.94499C36.4615 5.99005 35.6802 5.20874 34.7252 5.20874ZM32.989 32.9887H8.68148V8.68124H32.989V32.9887Z" fill="white"/>
</svg>
