<svg width="35" height="36" fill="none" xmlns="http://www.w3.org/2000/svg"><g clip-path="url(#a)"><path d="M22.604 20.443h-1.152l-.408-.394a9.437 9.437 0 0 0 2.29-6.168 9.479 9.479 0 0 0-9.48-9.48 9.479 9.479 0 0 0-9.479 9.48 9.479 9.479 0 0 0 9.48 9.479c2.347 0 4.505-.86 6.168-2.29l.394.409v1.152l7.291 7.277 2.173-2.173-7.277-7.292Zm-8.75 0a6.554 6.554 0 0 1-6.562-6.563 6.554 6.554 0 0 1 6.562-6.562 6.554 6.554 0 0 1 6.563 6.563 6.554 6.554 0 0 1-6.563 6.562Z" fill="#656161"/></g><defs><clipPath id="a"><rect y=".026" width="35" height="35" rx="15" fill="#fff"/></clipPath></defs></svg>