<svg width="20" height="20" viewBox="0 0 20 20" fill="none" xmlns="http://www.w3.org/2000/svg">
<path d="M13.0272 2.53561C13.0928 2.50717 13.167 2.50717 13.2326 2.53561L16.7804 4.07353L13.13 5.65596L9.47949 4.07351L13.0272 2.53561Z" fill="#222222"/>
<path d="M9.21875 4.53442V8.58033C9.21875 8.68583 9.28091 8.7812 9.37678 8.82276L12.8692 10.3367V6.11685L9.21875 4.53442Z" fill="#222222"/>
<path d="M13.3906 6.11685L17.041 4.53442V8.5803C17.041 8.68579 16.9789 8.78116 16.883 8.82273L13.3906 10.3366V6.11685Z" fill="#222222"/>
<path d="M2 9H5V17H2V9Z" fill="#222222"/>
<path d="M15 13H11L8.92 12.2L9.28 11.27L11.18 12H12.4C12.73 12 12.99 11.74 12.99 11.41C12.99 11.16 12.84 10.94 12.61 10.86L7.69 9H6V15.58L11.28 17L17 15C17 13.9 16.1 13 15 13Z" fill="#222222"/>
</svg>
