<svg width="37" height="37" viewBox="0 0 37 37" fill="none" xmlns="http://www.w3.org/2000/svg">
<g clip-path="url(#clip0_220_1179)">
<path d="M30.833 9.24996H18.4997L15.4163 6.16663H6.16634C4.47051 6.16663 3.09842 7.55413 3.09842 9.24996L3.08301 27.75C3.08301 29.4458 4.47051 30.8333 6.16634 30.8333H30.833C32.5288 30.8333 33.9163 29.4458 33.9163 27.75V12.3333C33.9163 10.6375 32.5288 9.24996 30.833 9.24996ZM30.833 27.75H6.16634V12.3333H30.833V27.75ZM12.333 20.057L14.5068 22.2308L16.958 19.795V26.2083H20.0413V19.795L22.4926 22.2462L24.6663 20.057L18.5151 13.875L12.333 20.057Z" fill="white"/>
</g>
<defs>
<clipPath id="clip0_220_1179">
<rect width="37" height="37" fill="white"/>
</clipPath>
</defs>
</svg>
