<svg width="42" height="42" viewBox="0 0 42 42" fill="none" xmlns="http://www.w3.org/2000/svg">
<path d="M28.0432 19.2638C30.9341 19.2638 33.2502 16.9374 33.2502 14.0555C33.2502 11.1736 30.9341 8.84717 28.0432 8.84717C25.1523 8.84717 22.8187 11.1736 22.8187 14.0555C22.8187 16.9374 25.1523 19.2638 28.0432 19.2638ZM14.1113 19.2638C17.0022 19.2638 19.3183 16.9374 19.3183 14.0555C19.3183 11.1736 17.0022 8.84717 14.1113 8.84717C11.2204 8.84717 8.88684 11.1736 8.88684 14.0555C8.88684 16.9374 11.2204 19.2638 14.1113 19.2638ZM14.1113 22.7361C10.0536 22.7361 1.9209 24.7673 1.9209 28.8124V31.4166C1.9209 32.3715 2.70457 33.1527 3.66238 33.1527H24.5602C25.518 33.1527 26.3017 32.3715 26.3017 31.4166V28.8124C26.3017 24.7673 18.169 22.7361 14.1113 22.7361ZM28.0432 22.7361C27.5382 22.7361 26.9635 22.7708 26.3539 22.8229C26.3888 22.8402 26.4062 22.8749 26.4236 22.8923C28.4089 24.3333 29.7847 26.2604 29.7847 28.8124V31.4166C29.7847 32.0243 29.6628 32.6145 29.4712 33.1527H38.4921C39.4499 33.1527 40.2336 32.3715 40.2336 31.4166V28.8124C40.2336 24.7673 32.1009 22.7361 28.0432 22.7361Z" fill="white"/>
</svg>
