<svg width="28" height="28" fill="none" xmlns="http://www.w3.org/2000/svg"><g clip-path="url(#a)"><path d="M15.166 8.167h-2.333v4.666H8.166v2.334h4.667v4.666h2.333v-4.666h4.667v-2.334h-4.667V8.167ZM14 2.333C7.56 2.333 2.333 7.56 2.333 14c0 6.44 5.227 11.667 11.667 11.667 6.44 0 11.666-5.227 11.666-11.667C25.666 7.56 20.44 2.333 14 2.333Zm0 21c-5.145 0-9.334-4.188-9.334-9.333 0-5.145 4.189-9.333 9.334-9.333S23.333 8.855 23.333 14c0 5.145-4.188 9.333-9.333 9.333Z" fill="#fff"/></g><defs><clipPath id="a"><path fill="#fff" d="M0 0h28v28H0z"/></clipPath></defs></svg>