<svg width="42" height="42" viewBox="0 0 42 42" fill="none" xmlns="http://www.w3.org/2000/svg">
<path d="M27.3081 5.44927C27.4447 5.39004 27.5994 5.39004 27.736 5.44927L35.1272 8.65328L27.5221 11.95L19.917 8.65324L27.3081 5.44927Z" fill="white"/>
<path d="M19.374 9.61334V18.0423C19.374 18.2621 19.5035 18.4608 19.7033 18.5474L26.9791 21.7014V12.9101L19.374 9.61334Z" fill="white"/>
<path d="M28.0654 12.9101L35.6704 9.61334V18.0422C35.6704 18.262 35.5409 18.4607 35.3413 18.5473L28.0654 21.7013V12.9101Z" fill="white"/>
<path d="M4.33398 18.9167H10.584V35.5834H4.33398V18.9167Z" fill="white"/>
<path d="M31.417 27.2501H23.0837L18.7503 25.5834L19.5003 23.6459L23.4587 25.1667H26.0003C26.6878 25.1667 27.2295 24.6251 27.2295 23.9376C27.2295 23.4167 26.917 22.9584 26.4378 22.7917L16.1878 18.9167H12.667V32.6251L23.667 35.5834L35.5837 31.4167C35.5837 29.1251 33.7087 27.2501 31.417 27.2501Z" fill="white"/>
</svg>
